<?xml version="1.0" encoding="UTF-8" standalone="no"?>
<svg
   viewBox="0 0 100 100"
   version="1.1"
   id="svg11"
   sodipodi:docname="mondstadt-dandelion.svg"
   xml:space="preserve"
   inkscape:version="1.4.2 (f4327f4, 2025-05-13)"
   xmlns:inkscape="http://www.inkscape.org/namespaces/inkscape"
   xmlns:sodipodi="http://sodipodi.sourceforge.net/DTD/sodipodi-0.dtd"
   xmlns="http://www.w3.org/2000/svg"
   xmlns:svg="http://www.w3.org/2000/svg"><defs
     id="defs11" /><sodipodi:namedview
     id="namedview11"
     pagecolor="#505050"
     bordercolor="#eeeeee"
     borderopacity="1"
     inkscape:showpageshadow="0"
     inkscape:pageopacity="0"
     inkscape:pagecheckerboard="0"
     inkscape:deskcolor="#505050"
     inkscape:zoom="4.1259681"
     inkscape:cx="121.30486"
     inkscape:cy="35.506818"
     inkscape:window-width="3440"
     inkscape:window-height="1369"
     inkscape:window-x="-8"
     inkscape:window-y="-8"
     inkscape:window-maximized="1"
     inkscape:current-layer="svg11" /><path
     id="path11"
     style="fill:#d4f7e7;fill-opacity:1;stroke-width:0.334055"
     d="M 7.8666727,93.775063 C 10.675403,86.486474 16.319472,77.797102 22.782797,70.811738 26.236336,67.07926 31.500562,62.342076 39.021277,56.199033 48.900216,48.129723 53.146491,44.15499 57.113705,39.26354 c 2.038323,-2.513189 2.438319,-3.241159 1.998759,-3.637614 -0.215311,-0.194258 -0.528407,-1.180829 -0.695758,-2.192471 -0.250643,-1.515372 -0.165171,-2.200612 0.485258,-3.890207 1.046118,-2.717455 2.910076,-4.201121 5.809233,-4.624003 5.803509,-0.846511 10.140439,4.569993 8.036063,10.036449 -1.127973,2.930094 -4.189033,4.965853 -7.128612,4.740897 -1.330558,-0.101824 -1.352018,-0.08517 -3.615614,2.804502 -3.668586,4.683271 -8.983192,9.745675 -18.016959,17.161985 C 31.055513,70.278485 25.708534,75.539716 20.81856,82.45908 17.911084,86.573199 15.589855,90.614503 13.571547,95.076323 L 12.020097,98.506052 9.4178942,97.504296 6.8156893,96.502551 Z M 58.58647,60.615262 c -0.04982,-0.399977 0.04989,-1.092113 0.221566,-1.538077 0.285651,-0.742025 0.240617,-0.802541 -0.530897,-0.713045 -0.463674,0.05379 -1.508447,0.301579 -2.321711,0.550631 -1.746978,0.534999 -2.732937,0.25249 -2.866706,-0.821418 -0.07464,-0.599282 0.07303,-0.899261 0.645098,-1.310541 0.825579,-0.593489 4.452448,-1.476154 5.72137,-1.392399 0.693775,0.04579 0.849126,-0.105345 1.023426,-0.995565 0.113029,-0.577236 1.089643,-3.63095 2.170291,-6.786019 1.934027,-5.646643 1.977401,-5.738054 2.770108,-5.836796 0.562519,-0.07006 0.948114,0.0652 1.279002,0.448609 0.522039,0.604998 0.308456,1.485929 -2.337597,9.641439 l -1.435356,4.423972 1.010263,0.850869 c 1.284986,1.082241 3.023715,3.606677 3.022868,4.388874 -6.74e-4,0.642585 -1.325826,1.778303 -1.842727,1.579317 -0.17165,-0.06608 -0.836868,-0.885932 -1.478274,-1.821917 -0.641398,-0.935965 -1.29072,-1.749714 -1.442946,-1.808314 -0.152226,-0.0586 -0.454994,0.356411 -0.672816,0.922238 -0.217822,0.565827 -0.629195,1.132326 -0.914151,1.258869 -0.793206,0.352251 -1.919583,-0.227854 -2.020836,-1.040777 z M 39.782517,48.285395 c -0.131066,-0.295176 -0.07438,-0.964859 0.125971,-1.488185 0.427572,-1.11839 0.70278,-3.505865 0.416004,-3.616263 -0.109533,-0.04216 -0.63061,0.09917 -1.158056,0.313875 -0.692967,0.282204 -1.158601,0.249977 -1.678649,-0.116102 -0.923519,-0.650119 -0.482963,-1.974791 0.874375,-2.628979 0.524684,-0.252906 0.907889,-0.563593 0.851563,-0.690449 -0.05631,-0.126797 -0.866792,-0.677263 -1.801006,-1.223156 -1.999752,-1.168512 -2.193172,-1.486595 -1.5975,-2.627276 0.438631,-0.839934 0.481696,-0.841965 2.307044,-0.10873 1.144154,0.459641 2.315433,1.202163 3.043183,1.929301 l 1.183088,1.182121 6.471161,-2.468485 c 3.55913,-1.357654 6.695532,-2.383944 6.969767,-2.280626 0.699387,0.263431 1.174086,1.665809 0.730426,2.157708 -0.203407,0.225499 -2.006576,1.029004 -4.007058,1.785556 -2.000496,0.756548 -4.826151,1.852723 -6.279241,2.435944 l -2.641976,1.060418 -0.241836,2.063237 c -0.133015,1.134782 -0.568909,2.786076 -0.96865,3.669547 -0.659879,1.458467 -0.801965,1.587017 -1.543522,1.396759 -0.449211,-0.115211 -0.923965,-0.451063 -1.055061,-0.746204 z M 72.53841,60.566614 c -0.109566,-0.879616 0.726122,-2.474367 2.455056,-4.68496 l 1.141155,-1.459059 -0.560261,-1.001966 c -2.526127,-4.517718 -5.599618,-11.262871 -5.385491,-11.819103 0.294375,-0.764687 1.093558,-1.179742 1.767237,-0.917813 0.265433,0.103188 1.89949,2.965159 3.63125,6.35991 l 3.148664,6.172288 1.666412,-0.08344 c 1.023699,-0.05127 2.391905,0.183821 3.547381,0.609517 l 1.880942,0.692983 -0.420046,1.091137 -0.420046,1.091134 -2.160795,-0.375786 c -1.18844,-0.206679 -2.254042,-0.334378 -2.368013,-0.283765 -0.113994,0.05061 -0.02115,0.54894 0.206247,1.107381 0.574314,1.410321 -0.150982,2.799872 -1.306475,2.502969 -0.517853,-0.133061 -0.956488,-0.538113 -1.163245,-1.074209 -0.182552,-0.473344 -0.443855,-0.903724 -0.580683,-0.956397 -0.327512,-0.126081 -1.699868,1.738308 -2.165997,2.942582 -0.202254,0.522591 -0.600923,1.053709 -0.885896,1.180261 -0.815864,0.36231 -1.920256,-0.233435 -2.027409,-1.093643 z M 35.725714,32.748147 c -0.314605,-0.708435 -0.12845,-1.079336 1.195552,-2.38218 0.626896,-0.61688 1.255566,-1.413111 1.397049,-1.76938 0.221716,-0.55706 0.0763,-0.713111 -1.03712,-1.115157 -2.297971,-0.82982 -1.829918,-2.771429 0.61598,-2.555193 0.59894,0.05294 1.131964,-0.01537 1.184491,-0.151826 0.05253,-0.136449 -0.378255,-1.109594 -0.957278,-2.162531 -1.05968,-1.926962 -1.09586,-2.744829 -0.140191,-3.169224 1.143622,-0.507853 1.999129,0.319918 3.256222,3.150672 0.685466,1.543555 1.409034,2.868036 1.607937,2.94327 0.198914,0.07521 3.264551,0.528071 6.812555,1.00628 6.335204,0.853877 6.457457,0.884177 6.814823,1.688906 0.531449,1.196729 -0.26055,1.99519 -1.826261,1.841132 -0.699873,-0.06888 -3.33173,-0.424784 -5.848575,-0.790923 -7.597103,-1.105208 -6.962146,-1.131357 -7.72672,0.318196 -0.366523,0.694914 -1.337727,1.931237 -2.158217,2.747401 -1.204925,1.198587 -1.632972,1.429595 -2.225971,1.201312 -0.403801,-0.155447 -0.837725,-0.515785 -0.964276,-0.800755 z m 50.137119,17.851164 c -0.07242,-1.061471 0.03502,-2.630254 0.238746,-3.486191 0.425595,-1.788111 0.921054,-1.284736 -5.501961,-5.589836 -2.112682,-1.416051 -4.303817,-2.916811 -4.869213,-3.335014 -1.260172,-0.932142 -1.317081,-2.058984 -0.130593,-2.585882 0.790963,-0.351253 0.93651,-0.273152 6.491031,3.483132 l 5.681924,3.842434 2.863618,-1.271686 c 2.887729,-1.28238 4.075029,-1.328808 4.585511,-0.179288 0.424396,0.955669 -0.150863,1.538153 -2.229127,2.257128 -1.135605,0.392871 -2.104359,0.81723 -2.152787,0.94303 -0.04845,0.125866 0.304306,0.533887 0.783854,0.906874 1.958109,1.522927 0.987645,3.25355 -1.298208,2.315096 -1.236,-0.507514 -1.309426,-0.490997 -1.469221,0.329296 -0.09252,0.474869 -0.165383,1.617106 -0.161952,2.538283 0.0072,1.920607 -0.606367,2.568517 -1.944392,2.053428 -0.606891,-0.23363 -0.781463,-0.670584 -0.88723,-2.220806 z M 55.26461,23.64953 c -1.230583,-1.150364 -3.525214,-3.240341 -5.099186,-4.644397 l -2.861745,-2.552808 -1.141557,0.629305 c -1.429305,0.787922 -4.699739,1.480691 -5.512684,1.16774 -0.336489,-0.129536 -0.715345,-0.468673 -0.841887,-0.75363 -0.46569,-1.048678 0.207963,-1.620689 2.55252,-2.167368 1.297731,-0.302588 2.401496,-0.659241 2.452821,-0.792562 0.05131,-0.133307 -0.30756,-0.665552 -0.797521,-1.182758 -1.682921,-1.776523 0.109758,-3.5335212 1.984571,-1.945061 0.467584,0.396166 0.968519,0.667747 1.113186,0.603493 0.144679,-0.06425 0.33336,-1.072179 0.419318,-2.239849 0.176114,-2.3926609 0.702594,-3.0991705 1.951261,-2.6184806 1.019722,0.3925529 1.191157,2.6650744 0.39371,5.2188556 l -0.614246,1.96723 1.237278,1.099932 c 4.236056,3.765799 8.69638,7.928133 8.924679,8.32843 0.406452,0.71265 -0.203476,1.917439 -1.022329,2.019446 -0.399994,0.04983 -0.766286,0.05987 -0.813987,0.02233 -0.04777,-0.03757 -1.093596,-1.009464 -2.324163,-2.159836 z m 5.259329,-8.305859 C 58.979202,9.8010178 58.568068,8.7233566 57.983206,8.6838809 57.599437,8.6579874 56.044742,8.2347341 54.52834,7.7433264 51.974751,6.9158014 51.763987,6.7916905 51.673063,6.0616871 51.486311,4.5623777 52.376806,4.281192 54.94207,5.0295136 c 1.267796,0.3698528 2.405573,0.627804 2.528348,0.5732817 0.122759,-0.054516 0.128604,-0.5376266 0.01295,-1.0735647 -0.309474,-1.433935 0.129258,-2.247456 1.248349,-2.314748 0.885151,-0.053214 1.003347,0.054589 1.428205,1.302506 0.531249,1.5603707 0.657269,1.5202691 2.415827,-0.7687124 1.003356,-1.3059901 1.321938,-1.5177683 2.016954,-1.3408058 1.353832,0.3447165 1.437128,1.2570048 0.273826,2.9995928 -0.545278,0.8168197 -1.548881,1.9410362 -2.23022,2.4982693 l -1.238824,1.0131388 1.740971,6.1602457 c 0.957529,3.388131 1.768449,6.528477 1.802045,6.978549 0.0772,1.034174 -0.782784,1.588513 -1.835603,1.183219 -0.591836,-0.227836 -1.103018,-1.593831 -2.580951,-6.896814 z m 8.134515,7.173363 c -0.163812,-0.368856 0.478859,-2.364306 2.23085,-6.926676 L 73.350505,9.181911 71.938561,7.79638 C 71.161986,7.0343232 70.17975,5.7613376 69.755813,4.9675169 69.118078,3.7733431 69.073459,3.3985407 69.497366,2.7963792 c 0.836045,-1.1876297 1.548703,-0.8978729 3.060535,1.2443403 0.765004,1.0840127 1.515219,2.0187897 1.667141,2.0772741 0.151922,0.058484 0.454445,-0.3566092 0.67227,-0.9224499 0.462333,-1.2009806 1.153055,-1.5964353 2.130901,-1.2200018 0.821379,0.3162002 0.957887,0.8062518 0.646439,2.3205464 L 77.445739,7.409086 78.841513,7.0377875 C 79.60918,6.8335691 80.630166,6.5593078 81.110344,6.4283173 82.305378,6.1023481 83.13307,7.0478471 82.680888,8.2224227 82.307225,9.193034 80.59444,9.8592377 77.879508,10.08996 l -1.70039,0.144509 -2.384227,6.19341 c -1.414004,3.673105 -2.610026,6.388248 -2.939088,6.672191 -0.62022,0.535181 -1.844816,0.210246 -2.197065,-0.582955 z m 6.24072,3.620347 c -0.104856,-0.29365 -0.101231,-0.72261 0.008,-0.953262 0.177548,-0.374723 8.800598,-7.243315 10.301659,-8.205669 0.404467,-0.259299 0.566892,-0.565967 0.495017,-0.934544 -0.735405,-3.769434 -0.55196,-6.3729402 0.482991,-6.8546478 1.166263,-0.5428333 1.7912,0.3629712 1.900524,2.7547868 0.05698,1.246847 0.207686,2.286599 0.33489,2.310565 0.127235,0.02393 0.682735,-0.253459 1.23448,-0.616499 1.081724,-0.71175 2.048707,-0.498055 2.306324,0.509682 0.157962,0.617903 -0.279372,1.399898 -1.293952,2.313391 -0.488026,0.439439 -0.393073,0.508132 1.876786,1.357646 1.936046,0.724586 2.437802,1.02632 2.637718,1.586237 0.321982,0.901772 0.161891,1.18759 -0.87194,1.556764 -0.959545,0.342609 -3.836309,-0.477125 -5.527753,-1.575157 l -1.064007,-0.690698 -5.414157,4.137246 c -2.977793,2.275488 -5.608016,4.167627 -5.844923,4.204744 -0.648633,0.101605 -1.347741,-0.301525 -1.56162,-0.900543 z m 3.461464,5.592071 c 0.06855,-0.561022 0.32244,-0.972404 0.695423,-1.126822 0.323124,-0.133759 3.524639,-0.56329 7.114513,-0.954504 l 6.527029,-0.711292 0.397893,-1.307787 c 0.494007,-1.623541 2.309852,-4.39466 3.041252,-4.641309 0.742629,-0.250438 1.910515,0.627307 1.818343,1.366698 -0.04127,0.33079 -0.310769,0.913394 -0.598864,1.29467 -0.288094,0.381276 -0.741826,1.217488 -1.008138,1.858294 l -0.484154,1.165146 1.102877,-0.121552 c 1.383145,-0.152451 1.639587,-0.05163 2.014091,0.791778 0.500779,1.127669 -0.03824,1.853488 -1.491906,2.008956 -1.230452,0.131584 -1.307358,0.194601 -0.972932,0.797358 0.199708,0.35995 0.874898,1.254172 1.500423,1.987171 1.329974,1.558462 1.280891,3.005763 -0.107799,3.178743 -0.949906,0.118321 -2.422295,-1.309831 -4.005519,-3.885174 l -0.992477,-1.614421 -6.51016,0.714079 C 82.81994,32.922238 79.521906,33.101732 79.071558,32.928366 78.450992,32.689473 78.278879,32.3992 78.360684,31.72953 Z" /></svg>
