<?xml version="1.0" encoding="UTF-8" standalone="no"?>
<svg
   viewBox="0 0 100 100"
   version="1.1"
   id="svg3"
   sodipodi:docname="sumeru-clover.svg"
   xml:space="preserve"
   inkscape:version="1.4.2 (f4327f4, 2025-05-13)"
   xmlns:inkscape="http://www.inkscape.org/namespaces/inkscape"
   xmlns:sodipodi="http://sodipodi.sourceforge.net/DTD/sodipodi-0.dtd"
   xmlns="http://www.w3.org/2000/svg"
   xmlns:svg="http://www.w3.org/2000/svg"><sodipodi:namedview
     id="namedview3"
     pagecolor="#505050"
     bordercolor="#eeeeee"
     borderopacity="1"
     inkscape:showpageshadow="0"
     inkscape:pageopacity="0"
     inkscape:pagecheckerboard="0"
     inkscape:deskcolor="#505050"
     inkscape:zoom="2.9175"
     inkscape:cx="-58.783205"
     inkscape:cy="-35.132819"
     inkscape:window-width="3440"
     inkscape:window-height="1369"
     inkscape:window-x="-8"
     inkscape:window-y="-8"
     inkscape:window-maximized="1"
     inkscape:current-layer="svg3" /><defs
     id="defs3" /><path
     style="fill:#c8f1b1;fill-opacity:1;stroke-width:0.113428"
     d="m 49.800535,81.853704 c -4.433307,-4.744036 -5.805472,-7.067514 -6.403466,-10.842855 -0.442936,-2.796441 0.668862,-10.710348 1.928054,-13.723995 0.455345,-1.089798 0.827912,-2.06081 0.827912,-2.157798 0,-0.09699 -2.223396,0.885135 -4.940889,2.182429 -6.012396,2.870262 -9.839376,3.682609 -13.574986,2.881466 -2.471702,-0.530082 -6.89277,-2.429236 -7.53711,-3.237687 -0.149272,-0.187256 -1.54739,-1.192504 -3.106935,-2.23384 -1.559559,-1.041357 -2.841853,-2.167623 -2.849554,-2.502825 -0.02426,-1.05629 7.752328,-8.014232 10.541505,-9.431787 2.230952,-1.133869 3.389655,-1.348737 7.048294,-1.307078 3.852477,0.04381 10.936261,1.517481 12.783892,2.659374 0.839222,0.518668 0.701496,0.117417 -1.33692,-3.895012 -3.930878,-7.73757 -4.58096,-13.332801 -2.118762,-18.236314 1.606723,-3.19983 6.027282,-9.616137 6.625093,-9.616137 0.793669,0 8.181963,7.936115 9.336209,10.028455 1.934177,3.506177 2.050973,9.190645 0.314684,15.316675 -0.778061,2.745178 -1.414654,5.116054 -1.414654,5.268633 0,0.152557 2.377966,-0.872256 5.284371,-2.277385 5.103022,-2.467095 5.452254,-2.554604 10.176937,-2.549771 4.233187,0.0042 5.258351,0.197935 7.606439,1.436489 3.214579,1.695618 8.412948,5.739744 8.412948,6.54493 0,1.01106 -6.206678,6.78645 -9.250084,8.607351 -2.739959,1.639363 -3.328834,1.774966 -7.847188,1.807253 -3.659364,0.02622 -5.885247,-0.278873 -8.872017,-1.215682 -2.192894,-0.68779 -4.068748,-1.168884 -4.168574,-1.069053 -0.09982,0.09983 0.777276,2.193518 1.949102,4.652662 3.16838,6.649015 4.07583,12.190645 2.57202,15.706837 -0.834116,1.950333 -6.205318,10.173789 -7.165623,10.970771 -0.577123,0.478988 -1.60163,-0.321417 -4.820698,-3.766106 z"
     id="path1264" /><path
     style="fill:#c4fba7;fill-opacity:0.56942004;stroke-width:0.113428"
     d="m 56.842045,94.485711 c 0.834433,-1.119495 1.642055,-2.157525 1.794705,-2.306808 0.152662,-0.149251 0.922954,-1.126224 1.711768,-2.171045 0.788816,-1.044854 1.895943,-2.38821 2.460304,-2.985246 1.836855,-1.943257 4.927378,-7.529305 5.85571,-10.584033 0.498968,-1.64189 1.004269,-4.939223 1.122879,-7.3274 l 0.215663,-4.342187 2.99202,-0.38638 c 4.86287,-0.62806 10.602725,-3.62152 14.527353,-7.576357 7.533618,-7.591657 11.507394,-12.043731 10.923511,-12.238369 -0.338367,-0.112784 -2.77815,-1.908759 -5.421722,-3.991041 -10.32157,-8.13007 -13.401428,-9.589347 -21.360992,-10.121094 -2.537447,-0.169533 -4.79299,-0.578523 -5.012313,-0.908913 -0.219328,-0.330379 -0.398896,-1.333425 -0.39904,-2.228996 0,-0.89557 -0.911592,-3.81164 -2.025421,-6.480166 C 62.048536,15.619759 59.969657,13.172884 50.969549,5.2340617 L 46.854747,1.6044861 42.840194,6.56278 c -5.134169,6.341077 -6.659608,8.456626 -7.970273,11.0535 C 33.32342,20.680422 32.041,26.357518 32.041,30.139526 v 3.2951 l -3.120932,0.389298 C 22.014614,34.685312 16.596886,38.501323 7.2017895,49.121412 l -3.9233583,4.434898 1.8085779,1.117768 c 0.9947306,0.614781 3.7415441,2.731804 6.1040369,4.704515 4.227106,3.529682 7.881117,5.766387 11.622852,7.114555 2.713758,0.977773 9.404889,1.916161 10.931405,1.533013 1.220546,-0.306337 1.333088,-0.122577 1.964976,3.208433 1.196373,6.306715 4.514952,11.867595 9.974285,16.713717 1.899537,1.686192 4.674943,4.297051 6.167557,5.801948 1.492625,1.504886 2.884605,2.743935 3.093312,2.753476 0.208696,0.0095 1.062177,-0.898561 1.896612,-2.018024 z"
     id="path1263" /></svg>
